<?xml version="1.0" encoding="utf-8"?>
<!-- Generator: Adobe Illustrator 25.4.1, SVG Export Plug-In . SVG Version: 6.00 Build 0)  -->
<svg version="1.1" id="Layer_1" xmlns="http://www.w3.org/2000/svg" xmlns:xlink="http://www.w3.org/1999/xlink" x="0px" y="0px"
	 viewBox="0 0 104 39" style="enable-background:new 0 0 104 39;" xml:space="preserve">
<style type="text/css">
	.st0{fill:#FAFAFA;}
</style>
<g>
	<path class="st0" d="M6.9,38.7c2.9,0,4.6-1.5,4.7-5l0.5-15c0-0.2,0.1-0.3,0.2-0.3c0.1,0,0.2,0.1,0.2,0.3l0.5,15
		c0.1,3.5,1.8,5,4.7,5c2.8,0,4.5-1.4,4.8-4.8l2.2-28.6c0.3-3.6-1.4-5.2-4.2-5.2c-2.9,0-4.2,1.5-4.3,4.9l-0.6,22.4
		c0,0.2-0.1,0.3-0.2,0.3s-0.2-0.1-0.2-0.3L14.6,2.9c-0.1-1.8-0.9-2.8-2.3-2.8s-2.2,1-2.3,2.8L9.4,27.4c0,0.2-0.1,0.3-0.2,0.3
		c-0.1,0-0.2-0.1-0.2-0.3L8.4,5C8.3,1.6,7,0.1,4.1,0.1c-2.8,0-4.4,1.6-4.2,5.2l2.2,28.6C2.4,37.3,4.1,38.7,6.9,38.7z"/>
	<path class="st0" d="M28.2,38.7c1.8,0,2.7-1,2.8-2.8l0.3-6.2h3.1l0.3,6.2c0.1,1.8,1,2.8,2.8,2.8c1.7,0,2.7-1.1,2.5-3.3L37.4,5.1
		c-0.3-3-2.1-4.5-4.6-4.5c-2.5,0-4.3,1.5-4.6,4.5l-2.6,30.3C25.4,37.6,26.5,38.7,28.2,38.7z M32.5,5.6c0.1-0.4,0.2-0.5,0.3-0.5
		c0.1,0,0.3,0.1,0.3,0.5l1.1,19.9h-2.7L32.5,5.6z"/>
	<path class="st0" d="M48.3,38.7c2.3,0,3.6-1.2,3.8-3.6L55,3.6c0.2-1.9-0.6-2.8-1.9-2.8c-1.4,0-2.2,0.6-2.2,2.6l-2.3,31.5
		c0,0.3-0.2,0.3-0.3,0.3c-0.1,0-0.2-0.1-0.2-0.3L45.8,3.4c-0.1-1.9-0.9-2.6-2.2-2.6c-1.3,0-2.2,0.8-2,2.8l3,31.5
		C44.8,37.5,46.2,38.7,48.3,38.7z"/>
	<path class="st0" d="M66.1,2.5c0-1-0.5-1.5-1.6-1.5h-4.9c-1.2,0-1.9,0.6-1.9,1.8v34c0,1.2,0.6,1.8,1.9,1.8h4.9
		c1.1,0,1.6-0.5,1.6-1.5c0-0.9-0.5-1.5-1.6-1.5h-3.6V20.4h3.6c1.1,0,1.6-0.6,1.6-1.6c0-1-0.5-1.6-1.6-1.6h-3.6V4h3.6
		C65.6,4,66.1,3.5,66.1,2.5z"/>
	<path class="st0" d="M69.6,38.7c0.8,0,1.2-0.4,1.2-1.3l0.7-8.6h4.5l0.7,8.6c0.1,0.9,0.5,1.3,1.3,1.3c0.8,0,1.2-0.5,1.1-1.5l-3-33.6
		c-0.2-1.7-1.1-2.4-2.4-2.4c-1.2,0-2.2,0.8-2.3,2.4l-3,33.6C68.4,38.2,68.9,38.7,69.6,38.7z M73.5,3.6c0.1-0.4,0.2-0.4,0.3-0.4
		s0.3,0.1,0.3,0.4L76,26.8h-4.3L73.5,3.6z"/>
	<path class="st0" d="M87.4,1.3h-3.1c-0.6,0-1,0.4-1,1v35.4c0,0.6,0.3,1,0.8,1c0.5,0,0.9-0.3,0.9-1V26.3h2.4c3,0,4.3-1.8,4.3-5.6V7
		C91.7,3.2,90.4,1.3,87.4,1.3z M90.1,20.8c0,3-0.8,4.1-2.8,4.1H85V2.7h2.3c2,0,2.8,0.9,2.8,4.1V20.8z"/>
	<path class="st0" d="M100,1.4h-3c-0.4,0-0.7,0.3-0.7,0.7v35.9c0,0.4,0.2,0.6,0.5,0.6c0.3,0,0.5-0.2,0.5-0.6V26.2h2.6
		c2.8,0,3.9-1.7,3.9-5.3v-14C104,3.2,102.8,1.4,100,1.4z M102.9,20.8c0,3.2-0.8,4.4-3,4.4h-2.4V2.4h2.4c2.1,0,3,1,3,4.4V20.8z"/>
</g>
</svg>
